# xmcd
#
# Track frame offsets:
# 150
# 18402
# 31545
# 50347
# 71292
# 87517
# 105427
# 120467
# 137642
# 156847
# 177047
# 196225
#
# Disc length: 2882 seconds
#
# Revision: 0
# Processed by: cddbd v1.4PL0 Copyright (c) Steve Scherf et al.
# Submitted via: Audion 3.0.2 (http://www.panic.com/audion/)
#
DISCID=8b0b400c
DTITLE=Rocky Votolato - Suicide Medicine
DYEAR=1900
DGENRE=
TTITLE0=The Light and the Sound
TTITLE1=Suicide Medicine
TTITLE2=I'll Catch You
TTITLE3=Automatic Rifle
TTITLE4=Every Red Cent
TTITLE5=Montana
TTITLE6=Alabaster
TTITLE7=The City Is Calling
TTITLE8=Secrets of a Salesman
TTITLE9=Prison Is Private Property
TTITLE10=Death-Right
TTITLE11=Mix Tapes/Cellmates
EXTD=
EXTT0=
EXTT1=
EXTT2=
EXTT3=
EXTT4=
EXTT5=
EXTT6=
EXTT7=
EXTT8=
EXTT9=
EXTT10=
EXTT11=
PLAYORDER=
